<svg xmlns="http://www.w3.org/2000/svg" width="1200" height="630" viewBox="0 0 1200 630" role="img" aria-labelledby="title desc">
  <title id="title">Jinheng Portfolio</title>
  <desc id="desc">Social sharing preview card for Jinheng Portfolio.</desc>
  <defs>
    <linearGradient id="bg" x1="0" x2="1" y1="0" y2="1">
      <stop offset="0%" stop-color="#f4efe6"/>
      <stop offset="100%" stop-color="#ece4d7"/>
    </linearGradient>
    <linearGradient id="accent" x1="0" x2="1" y1="0" y2="0">
      <stop offset="0%" stop-color="#c97833"/>
      <stop offset="100%" stop-color="#e2a15d"/>
    </linearGradient>
  </defs>
  <rect width="1200" height="630" fill="url(#bg)"/>
  <g opacity="0.3">
    <circle cx="1010" cy="118" r="160" fill="#d6c3ae"/>
    <circle cx="1095" cy="480" r="210" fill="#e7d7c5"/>
    <circle cx="176" cy="516" r="126" fill="#ddd0bf"/>
  </g>
  <g opacity="0.12" stroke="#2a2621" stroke-width="1">
    <path d="M0 88H1200"/>
    <path d="M0 176H1200"/>
    <path d="M0 264H1200"/>
    <path d="M0 352H1200"/>
    <path d="M0 440H1200"/>
    <path d="M0 528H1200"/>
    <path d="M120 0V630"/>
    <path d="M360 0V630"/>
    <path d="M600 0V630"/>
    <path d="M840 0V630"/>
    <path d="M1080 0V630"/>
  </g>
  <rect x="72" y="72" width="176" height="12" rx="6" fill="url(#accent)"/>
  <text x="72" y="210" fill="#1f1a15" font-family="Space Grotesk, Arial, sans-serif" font-size="80" font-weight="700" letter-spacing="-1.5">
    Jinheng
  </text>
  <text x="72" y="300" fill="#1f1a15" font-family="Space Grotesk, Arial, sans-serif" font-size="80" font-weight="700" letter-spacing="-1.5">
    Portfolio
  </text>
  <text x="76" y="382" fill="#4b443d" font-family="Noto Sans SC, Arial, sans-serif" font-size="30">
    Selected work in product, urban, and spatial design
  </text>
  <text x="76" y="454" fill="#7c7269" font-family="Space Grotesk, Arial, sans-serif" font-size="28" letter-spacing="4">
    CENJINHENG.GITHUB.IO/WEB
  </text>
  <g transform="translate(862 84)">
    <rect width="252" height="252" rx="44" fill="#1f1a15"/>
    <rect x="28" y="28" width="196" height="196" rx="32" fill="#f7f1e9"/>
    <path d="M88 160V92h32c40 0 64 11 64 34 0 24-24 34-64 34H88zm32-54h-12v40h12c25 0 42-4 42-20 0-14-17-20-42-20z" fill="#1f1a15"/>
    <path d="M84 188h100" stroke="#c97833" stroke-width="10" stroke-linecap="round"/>
  </g>
</svg>
